<svg width="12" height="13" viewBox="0 0 12 13" fill="none" xmlns="http://www.w3.org/2000/svg">
<path fill-rule="evenodd" clip-rule="evenodd" d="M6.75 6.5C6.75 6.30109 6.67098 6.11032 6.53033 5.96967C6.38968 5.82902 6.19891 5.75 6 5.75H4.125C3.92609 5.75 3.73532 5.82902 3.59467 5.96967C3.45402 6.11032 3.375 6.30109 3.375 6.5C3.375 6.69891 3.45402 6.88968 3.59467 7.03033C3.73532 7.17098 3.92609 7.25 4.125 7.25H5.25V10.25C5.25 10.4489 5.32902 10.6397 5.46967 10.7803C5.61032 10.921 5.80109 11 6 11C6.19891 11 6.38968 10.921 6.53033 10.7803C6.67098 10.6397 6.75 10.4489 6.75 10.25V6.5ZM3 0.5H9C9.79565 0.5 10.5587 0.816071 11.1213 1.37868C11.6839 1.94129 12 2.70435 12 3.5V9.5C12 10.2956 11.6839 11.0587 11.1213 11.6213C10.5587 12.1839 9.79565 12.5 9 12.5H3C2.20435 12.5 1.44129 12.1839 0.87868 11.6213C0.316071 11.0587 0 10.2956 0 9.5V3.5C0 2.70435 0.316071 1.94129 0.87868 1.37868C1.44129 0.816071 2.20435 0.5 3 0.5V0.5ZM6 4.625C6.29837 4.625 6.58452 4.50647 6.7955 4.2955C7.00647 4.08452 7.125 3.79837 7.125 3.5C7.125 3.20163 7.00647 2.91548 6.7955 2.7045C6.58452 2.49353 6.29837 2.375 6 2.375C5.70163 2.375 5.41548 2.49353 5.2045 2.7045C4.99353 2.91548 4.875 3.20163 4.875 3.5C4.875 3.79837 4.99353 4.08452 5.2045 4.2955C5.41548 4.50647 5.70163 4.625 6 4.625Z" fill="#697386"/>
</svg>
